<svg width="30" height="23" viewBox="0 0 30 23" fill="none" xmlns="http://www.w3.org/2000/svg">
<path d="M18.7612 21.9552H25.5522C27.0149 21.9552 28.1642 20.6317 28.1642 19.0877C28.1642 17.5436 27.0149 16.2201 25.5522 16.2201C25.0298 16.2201 24.5075 16.2201 23.9851 16.2201C26.0746 11.4776 25.0298 1 15.6269 1C9.35821 1 6.22388 4.86017 6.22388 12.6908H5.1791C2.8806 12.6908 1 14.7863 1 17.323C1 19.8597 2.8806 21.9552 5.1791 21.9552H10.403H18.7612Z" stroke="url(#paint0_linear_2105_2)" strokeWidth="2" strokeLinecap="round" strokeLinejoin="round"/>
<path d="M15.5737 11.3215L13.8301 11.9039L12.9631 9.30872L14.6797 8.73525C15.0354 8.6164 15.4136 8.64093 15.7459 8.80309L15.746 8.80314C16.0783 8.9651 16.3234 9.24429 16.4389 9.59012C16.5544 9.93591 16.5264 10.306 16.3581 10.6353L16.358 10.6355C16.1942 10.9568 15.9173 11.1992 15.5737 11.3215ZM11.7491 9.71367L12.0981 9.59709L14.2473 16.0302L13.8983 16.1468C13.6635 16.2252 13.5286 16.4795 13.6091 16.7204C13.6896 16.9613 13.9502 17.0834 14.185 17.005L15.7018 16.4982L15.8148 16.8364C15.8953 17.0774 16.1559 17.1994 16.3907 17.121C16.6255 17.0426 16.7605 16.7883 16.68 16.5474L16.567 16.2092L16.8823 16.1039L16.9953 16.4421C17.0758 16.683 17.3364 16.8051 17.5712 16.7266C17.8065 16.648 17.9405 16.3936 17.8601 16.1531L17.747 15.8145C19.0318 15.3587 19.7326 13.9709 19.3031 12.6852C18.9842 11.7307 18.1332 11.106 17.1842 11.0142C17.4391 10.498 17.4998 9.88777 17.3038 9.30119C16.9774 8.32421 16.0438 7.72316 15.0553 7.75729L14.9115 7.32696L14.9115 7.32692C14.8311 7.08653 14.571 6.96408 14.3359 7.04259C14.1014 7.12096 13.9661 7.37503 14.0466 7.6159L14.1599 7.95496L13.8446 8.0603L13.7313 7.72129C13.7313 7.72127 13.7313 7.72126 13.7313 7.72125C13.6508 7.48034 13.39 7.3586 13.1555 7.43696C12.9209 7.51532 12.7857 7.76939 12.8662 8.01027L12.9794 8.34932L12.5516 8.49223L12.5515 8.49168L12.3143 8.57089L11.4624 8.85551C11.2276 8.93395 11.0927 9.18821 11.1732 9.4291C11.2537 9.67 11.5143 9.79212 11.7491 9.71367ZM18.3455 14.1745L18.3455 14.1746C18.1527 14.5527 17.823 14.8357 17.4148 14.972L15.1121 15.7413L14.1169 12.7624L15.8335 12.1889C15.8453 12.185 15.8567 12.1808 15.8649 12.1778L16.4194 11.9926C16.8274 11.8563 17.2612 11.8846 17.6427 12.0707L17.6428 12.0708C18.0242 12.2567 18.3056 12.5772 18.4382 12.9741C18.5709 13.3713 18.5386 13.7963 18.3455 14.1745Z" fill="url(#paint1_linear_2105_2)" stroke="url(#paint2_linear_2105_2)" strokeWidth="0.5"/>
<defs>
<linearGradient id="paint0_linear_2105_2" x1="15.9403" y1="-2.29851" x2="16.8527" y2="34.8385" gradientUnits="userSpaceOnUse">
<stop stopColor="#FD749B"/>
<stop offset="1" stopColor="#281AC8"/>
</linearGradient>
<linearGradient id="paint1_linear_2105_2" x1="13.829" y1="5.86405" x2="20.0867" y2="21.8824" gradientUnits="userSpaceOnUse">
<stop stopColor="#FD749B"/>
<stop offset="1" stopColor="#281AC8"/>
</linearGradient>
<linearGradient id="paint2_linear_2105_2" x1="13.829" y1="5.86405" x2="20.0867" y2="21.8824" gradientUnits="userSpaceOnUse">
<stop stopColor="#FD749B"/>
<stop offset="1" stopColor="#281AC8"/>
</linearGradient>
</defs>
</svg>
